<svg version="1.1" xmlns="http://www.w3.org/2000/svg" xmlns:xlink="http://www.w3.org/1999/xlink" width="776.44091796875" height="164"><defs/><g><g transform="translate(-70,-278) scale(1,1)"><rect fill="#C0C0C0" stroke="none" x="97" y="311" width="142" height="112" opacity="0.2"/></g><g transform="translate(-70,-278) scale(1,1)"><rect fill="#ffffff" stroke="none" x="80" y="304" width="152" height="112"/></g><g transform="translate(-70,-278) scale(1,1)"><path fill="none" stroke="#000000" d="M 80 304 L 232 304 L 232 416 L 80 416 L 80 304 Z Z" stroke-miterlimit="10"/></g><g transform="translate(-70,-278) scale(1,1)"><rect fill="#ffffff" stroke="none" x="212" y="314" width="13" height="16"/></g><g transform="translate(-70,-278) scale(1,1)"><path fill="none" stroke="#000000" d="M 212 314 L 225 314 L 225 330 L 212 330 L 212 314 Z Z" stroke-miterlimit="10"/></g><g transform="translate(-70,-278) scale(1,1)"><rect fill="#ffffff" stroke="none" x="209" y="317" width="7" height="4"/></g><g transform="translate(-70,-278) scale(1,1)"><path fill="none" stroke="#000000" d="M 209 317 L 216 317 L 216 321 L 209 321 L 209 317 Z Z" stroke-miterlimit="10"/></g><g transform="translate(-70,-278) scale(1,1)"><rect fill="#ffffff" stroke="none" x="209" y="323" width="7" height="4"/></g><g transform="translate(-70,-278) scale(1,1)"><path fill="none" stroke="#000000" d="M 209 323 L 216 323 L 216 327 L 209 327 L 209 323 Z Z" stroke-miterlimit="10"/></g><g transform="translate(-70,-278) scale(1,1)"><path fill="none" stroke="#000000" d="M 80 342 L 232 342" stroke-miterlimit="10"/></g><g transform="translate(-70,-278) scale(1,1)"><g><path fill="none" stroke="none"/><text fill="#000000" stroke="none" font-family="Arial" font-size="13px" font-style="normal" font-weight="normal" text-decoration="none" x="144" y="321.5"></text></g></g><g transform="translate(-70,-278) scale(1,1)"><g><path fill="none" stroke="none"/><text fill="#000000" stroke="none" font-family="Arial" font-size="13px" font-style="normal" font-weight="bold" text-decoration="none" x="97.966796875" y="336.5">Client's browser</text></g></g><g transform="translate(-70,-278) scale(1,1)"><rect fill="#C0C0C0" stroke="none" x="95" y="359" width="75.45361328125" height="24" opacity="0.2"/></g><g transform="translate(-70,-278) scale(1,1)"><rect fill="#ffffff" stroke="none" x="88" y="352" width="75.45361328125" height="24"/></g><g transform="translate(-70,-278) scale(1,1)"><path fill="none" stroke="#000000" d="M 88 352 L 163.45361328125 352 L 163.45361328125 376 L 88 376 L 88 352 Z Z" stroke-miterlimit="10"/></g><g transform="translate(-70,-278) scale(1,1)"><g><path fill="none" stroke="none"/><text fill="#000000" stroke="none" font-family="Arial" font-size="13px" font-style="normal" font-weight="bold" text-decoration="none" x="95.38818359375" y="371.5">Rooms list</text></g></g><g transform="translate(-70,-278) scale(1,1)"><rect fill="#C0C0C0" stroke="none" x="95" y="391" width="81.24267578125" height="24" opacity="0.2"/></g><g transform="translate(-70,-278) scale(1,1)"><rect fill="#ffffff" stroke="none" x="88" y="384" width="81.24267578125" height="24"/></g><g transform="translate(-70,-278) scale(1,1)"><path fill="none" stroke="#000000" d="M 88 384 L 169.24267578125 384 L 169.24267578125 408 L 88 408 L 88 384 Z Z" stroke-miterlimit="10"/></g><g transform="translate(-70,-278) scale(1,1)"><g><path fill="none" stroke="none"/><text fill="#000000" stroke="none" font-family="Arial" font-size="13px" font-style="normal" font-weight="bold" text-decoration="none" x="94.305908203125" y="403.5">Game room</text></g></g><g transform="translate(-70,-278) scale(1,1)"><rect fill="#C0C0C0" stroke="none" x="457" y="295" width="118" height="144" opacity="0.2"/></g><g transform="translate(-70,-278) scale(1,1)"><rect fill="#ffffff" stroke="none" x="440" y="288" width="128" height="144"/></g><g transform="translate(-70,-278) scale(1,1)"><path fill="none" stroke="#000000" d="M 440 288 L 568 288 L 568 432 L 440 432 L 440 288 Z Z" stroke-miterlimit="10"/></g><g transform="translate(-70,-278) scale(1,1)"><rect fill="#ffffff" stroke="none" x="548" y="298" width="13" height="16"/></g><g transform="translate(-70,-278) scale(1,1)"><path fill="none" stroke="#000000" d="M 548 298 L 561 298 L 561 314 L 548 314 L 548 298 Z Z" stroke-miterlimit="10"/></g><g transform="translate(-70,-278) scale(1,1)"><rect fill="#ffffff" stroke="none" x="545" y="301" width="7" height="4"/></g><g transform="translate(-70,-278) scale(1,1)"><path fill="none" stroke="#000000" d="M 545 301 L 552 301 L 552 305 L 545 305 L 545 301 Z Z" stroke-miterlimit="10"/></g><g transform="translate(-70,-278) scale(1,1)"><rect fill="#ffffff" stroke="none" x="545" y="307" width="7" height="4"/></g><g transform="translate(-70,-278) scale(1,1)"><path fill="none" stroke="#000000" d="M 545 307 L 552 307 L 552 311 L 545 311 L 545 307 Z Z" stroke-miterlimit="10"/></g><g transform="translate(-70,-278) scale(1,1)"><path fill="none" stroke="#000000" d="M 440 326 L 568 326" stroke-miterlimit="10"/></g><g transform="translate(-70,-278) scale(1,1)"><g><path fill="none" stroke="none"/><text fill="#000000" stroke="none" font-family="Arial" font-size="13px" font-style="normal" font-weight="normal" text-decoration="none" x="492" y="305.5"></text></g></g><g transform="translate(-70,-278) scale(1,1)"><g><path fill="none" stroke="none"/><text fill="#000000" stroke="none" font-family="Arial" font-size="13px" font-style="normal" font-weight="bold" text-decoration="none" x="454.4345703125" y="320.5">Game server</text></g></g><g transform="translate(-70,-278) scale(1,1)"><rect fill="#C0C0C0" stroke="none" x="455" y="343" width="75.45361328125" height="24" opacity="0.2"/></g><g transform="translate(-70,-278) scale(1,1)"><rect fill="#ffffff" stroke="none" x="448" y="336" width="75.45361328125" height="24"/></g><g transform="translate(-70,-278) scale(1,1)"><path fill="none" stroke="#000000" d="M 448 336 L 523.45361328125 336 L 523.45361328125 360 L 448 360 L 448 336 Z Z" stroke-miterlimit="10"/></g><g transform="translate(-70,-278) scale(1,1)"><g><path fill="none" stroke="none"/><text fill="#000000" stroke="none" font-family="Arial" font-size="13px" font-style="normal" font-weight="bold" text-decoration="none" x="455.38818359375" y="355.5">Rooms list</text></g></g><g transform="translate(-70,-278) scale(1,1)"><rect fill="#C0C0C0" stroke="none" x="455" y="375" width="77.65625" height="24" opacity="0.2"/></g><g transform="translate(-70,-278) scale(1,1)"><rect fill="#ffffff" stroke="none" x="448" y="368" width="77.65625" height="24"/></g><g transform="translate(-70,-278) scale(1,1)"><path fill="none" stroke="#000000" d="M 448 368 L 525.65625 368 L 525.65625 392 L 448 392 L 448 368 Z Z" stroke-miterlimit="10"/></g><g transform="translate(-70,-278) scale(1,1)"><g><path fill="none" stroke="none"/><text fill="#000000" stroke="none" font-family="Arial" font-size="13px" font-style="normal" font-weight="bold" text-decoration="none" x="455.404052734375" y="387.5">Players list</text></g></g><g transform="translate(-70,-278) scale(1,1)"><rect fill="#C0C0C0" stroke="none" x="455" y="407" width="93.55078125" height="24" opacity="0.2"/></g><g transform="translate(-70,-278) scale(1,1)"><rect fill="#ffffff" stroke="none" x="448" y="400" width="93.55078125" height="24"/></g><g transform="translate(-70,-278) scale(1,1)"><path fill="none" stroke="#000000" d="M 448 400 L 541.55078125 400 L 541.55078125 424 L 448 424 L 448 400 Z Z" stroke-miterlimit="10"/></g><g transform="translate(-70,-278) scale(1,1)"><g><path fill="none" stroke="none"/><text fill="#000000" stroke="none" font-family="Arial" font-size="13px" font-style="normal" font-weight="bold" text-decoration="none" x="454.67724609375" y="419.5">Games states</text></g></g><g transform="translate(-70,-278) scale(1,1)"><path fill="#C0C0C0" stroke="none" d="M 333.81298828125 354.5 C 333.81298828125 348.1487248 338.96171308125 343 345.31298828125 343 C 351.66426348125 343 356.81298828125 348.1487248 356.81298828125 354.5 C 356.81298828125 360.8512752 351.66426348125 366 345.31298828125 366 C 338.96171308125 366 333.81298828125 360.8512752 333.81298828125 354.5 Z" opacity="0.2"/></g><g transform="translate(-70,-278) scale(1,1)"><path fill="none" stroke="#000000" d="M 338 358.5 A 11.5 11.5 0 0 1 338 335.5" stroke-miterlimit="10"/></g><g transform="translate(-70,-278) scale(1,1)"><path fill="#ffffff" stroke="none" d="M 329.81298828125 347.5 C 329.81298828125 342.8055792 333.61856748125 339 338.31298828125 339 C 343.00740908125 339 346.81298828125 342.8055792 346.81298828125 347.5 C 346.81298828125 352.1944208 343.00740908125 356 338.31298828125 356 C 333.61856748125 356 329.81298828125 352.1944208 329.81298828125 347.5 Z"/></g><g transform="translate(-70,-278) scale(1,1)"><path fill="none" stroke="#000000" d="M 329.81298828125 347.5 C 329.81298828125 342.8055792 333.61856748125 339 338.31298828125 339 C 343.00740908125 339 346.81298828125 342.8055792 346.81298828125 347.5 C 346.81298828125 352.1944208 343.00740908125 356 338.31298828125 356 C 333.61856748125 356 329.81298828125 352.1944208 329.81298828125 347.5 Z" stroke-miterlimit="10"/></g><g transform="translate(-70,-278) scale(1,1)"><g><path fill="none" stroke="none"/><text fill="#000000" stroke="none" font-family="Arial" font-size="13px" font-style="normal" font-weight="normal" text-decoration="none" x="306.152587890625" y="376.5">«interface»</text></g></g><g transform="translate(-70,-278) scale(1,1)"><g><path fill="none" stroke="none"/><text fill="#000000" stroke="none" font-family="Arial" font-size="13px" font-style="normal" font-weight="bold" text-decoration="none" x="303.029541015625" y="391.5">Websockets</text></g></g><g transform="translate(-70,-278) scale(1,1)"><path fill="none" stroke="#000000" d="M 440 347 L 349.81298828125 347" stroke-miterlimit="10"/></g><g transform="translate(-70,-278) scale(1,1)"><path fill="none" stroke="#000000" d="M 232 347 L 326.81298828125 347" stroke-miterlimit="10"/></g><g transform="translate(-70,-278) scale(1,1)"><rect fill="#C0C0C0" stroke="none" x="745" y="327" width="98.44091796875" height="44" opacity="0.2"/></g><g transform="translate(-70,-278) scale(1,1)"><rect fill="#ffffff" stroke="none" x="728" y="320" width="108.44091796875" height="44"/></g><g transform="translate(-70,-278) scale(1,1)"><path fill="none" stroke="#000000" d="M 728 320 L 836.44091796875 320 L 836.44091796875 364 L 728 364 L 728 320 Z Z" stroke-miterlimit="10"/></g><g transform="translate(-70,-278) scale(1,1)"><rect fill="#ffffff" stroke="none" x="816.44091796875" y="330" width="13" height="16"/></g><g transform="translate(-70,-278) scale(1,1)"><path fill="none" stroke="#000000" d="M 816.44091796875 330 L 829.44091796875 330 L 829.44091796875 346 L 816.44091796875 346 L 816.44091796875 330 Z Z" stroke-miterlimit="10"/></g><g transform="translate(-70,-278) scale(1,1)"><rect fill="#ffffff" stroke="none" x="813.44091796875" y="333" width="7" height="4"/></g><g transform="translate(-70,-278) scale(1,1)"><path fill="none" stroke="#000000" d="M 813.44091796875 333 L 820.44091796875 333 L 820.44091796875 337 L 813.44091796875 337 L 813.44091796875 333 Z Z" stroke-miterlimit="10"/></g><g transform="translate(-70,-278) scale(1,1)"><rect fill="#ffffff" stroke="none" x="813.44091796875" y="339" width="7" height="4"/></g><g transform="translate(-70,-278) scale(1,1)"><path fill="none" stroke="#000000" d="M 813.44091796875 339 L 820.44091796875 339 L 820.44091796875 343 L 813.44091796875 343 L 813.44091796875 339 Z Z" stroke-miterlimit="10"/></g><g transform="translate(-70,-278) scale(1,1)"><g><path fill="none" stroke="none"/><text fill="#000000" stroke="none" font-family="Arial" font-size="13px" font-style="normal" font-weight="normal" text-decoration="none" x="770.220458984375" y="337.5"></text></g></g><g transform="translate(-70,-278) scale(1,1)"><g><path fill="none" stroke="none"/><text fill="#000000" stroke="none" font-family="Arial" font-size="13px" font-style="normal" font-weight="bold" text-decoration="none" x="741.808349609375" y="352.5">Words list</text></g></g><g transform="translate(-70,-278) scale(1,1)"><path fill="#C0C0C0" stroke="none" d="M 651.4072265625 346.5 C 651.4072265625 340.1487248 656.5559513625 335 662.9072265625 335 C 669.2585017625 335 674.4072265625 340.1487248 674.4072265625 346.5 C 674.4072265625 352.8512752 669.2585017625 358 662.9072265625 358 C 656.5559513625 358 651.4072265625 352.8512752 651.4072265625 346.5 Z" opacity="0.2"/></g><g transform="translate(-70,-278) scale(1,1)"><path fill="none" stroke="#000000" d="M 655 350.5 A 11.5 11.5 0 0 1 655 327.5" stroke-miterlimit="10"/></g><g transform="translate(-70,-278) scale(1,1)"><path fill="#ffffff" stroke="none" d="M 647.4072265625 339.5 C 647.4072265625 334.8055792 651.2128057625 331 655.9072265625 331 C 660.6016473625 331 664.4072265625 334.8055792 664.4072265625 339.5 C 664.4072265625 344.1944208 660.6016473625 348 655.9072265625 348 C 651.2128057625 348 647.4072265625 344.1944208 647.4072265625 339.5 Z"/></g><g transform="translate(-70,-278) scale(1,1)"><path fill="none" stroke="#000000" d="M 647.4072265625 339.5 C 647.4072265625 334.8055792 651.2128057625 331 655.9072265625 331 C 660.6016473625 331 664.4072265625 334.8055792 664.4072265625 339.5 C 664.4072265625 344.1944208 660.6016473625 348 655.9072265625 348 C 651.2128057625 348 647.4072265625 344.1944208 647.4072265625 339.5 Z" stroke-miterlimit="10"/></g><g transform="translate(-70,-278) scale(1,1)"><g><path fill="none" stroke="none"/><text fill="#000000" stroke="none" font-family="Arial" font-size="13px" font-style="normal" font-weight="normal" text-decoration="none" x="623.746826171875" y="368.5">«interface»</text></g></g><g transform="translate(-70,-278) scale(1,1)"><g><path fill="none" stroke="none"/><text fill="#000000" stroke="none" font-family="Arial" font-size="13px" font-style="normal" font-weight="bold" text-decoration="none" x="623.042236328125" y="383.5">File system</text></g></g><g transform="translate(-70,-278) scale(1,1)"><path fill="none" stroke="#000000" d="M 728 339 L 667.4072265625 339" stroke-miterlimit="10"/></g><g transform="translate(-70,-278) scale(1,1)"><path fill="none" stroke="#000000" d="M 568 339 L 644.4072265625 339" stroke-miterlimit="10"/></g></g></svg>